<svg width="311" height="302" viewBox="0 0 311 302" fill="none" xmlns="http://www.w3.org/2000/svg">
<path d="M209.033 133.507C205.447 130.477 200.084 130.928 197.054 134.514C194.024 138.1 194.476 143.463 198.062 146.493L209.033 133.507ZM179.547 278L183.457 285.547L183.824 285.357L184.171 285.132L179.547 278ZM123.547 66.9999L121.553 75.2626L123.547 66.9999ZM198.062 146.493C218.36 163.642 223.262 187.261 217.737 210.686C212.14 234.411 195.882 257.279 174.923 270.868L184.171 285.132C208.712 269.221 227.654 242.689 234.282 214.589C240.982 186.189 235.134 155.558 209.033 133.507L198.062 146.493ZM175.637 270.453C136.625 290.664 103.011 286.963 77.5141 274.043C51.5535 260.888 33.8289 238.075 27.5698 220.192L11.5242 225.808C19.2651 247.925 40.0406 274.112 69.8299 289.207C100.083 304.537 139.469 308.336 183.457 285.547L175.637 270.453ZM27.5698 220.192C13.848 180.987 11.142 136.201 38.7422 106.82L26.3518 95.1803C-8.04801 131.799 -2.75397 185.013 11.5242 225.808L27.5698 220.192ZM38.7422 106.82C68.0372 75.6348 96.0349 69.1032 121.553 75.2626L125.541 58.7372C93.0592 50.8967 59.0568 60.3652 26.3518 95.1803L38.7422 106.82ZM121.553 75.2626C142.871 80.4084 156.294 91.3635 165.655 97.9513L175.439 84.0486C166.8 77.9697 150.623 64.7915 125.541 58.7372L121.553 75.2626Z" fill="black"/>
<path d="M194.547 142L302.106 11.1853C302.811 10.3281 301.803 9.1321 300.838 9.68126L161.547 89" stroke="black" stroke-width="17"/>
<path d="M112.574 219.146C108.788 216.369 103.469 217.188 100.693 220.973C97.9165 224.759 98.7348 230.078 102.52 232.854L112.574 219.146ZM204.035 254.631C181.669 250.655 166.061 247.015 152.459 241.811C138.982 236.655 127.15 229.835 112.574 219.146L102.52 232.854C117.944 244.165 131.112 251.845 146.385 257.689C161.533 263.485 178.425 267.345 201.059 271.369L204.035 254.631Z" fill="black"/>
<circle cx="151.547" cy="170" r="10" fill="black"/>
</svg>
